<svg xmlns="http://www.w3.org/2000/svg" viewBox="0 0 100 100">
  <defs>
    <linearGradient id="folderGradient" x1="0%" y1="0%" x2="100%" y2="100%">
      <stop offset="0%" style="stop-color:#06b6d4;stop-opacity:1" />
      <stop offset="50%" style="stop-color:#a855f7;stop-opacity:1" />
      <stop offset="100%" style="stop-color:#ec4899;stop-opacity:1" />
    </linearGradient>
  </defs>

  <!-- Folder back -->
  <path d="M10 25 L10 80 C10 85 15 90 20 90 L80 90 C85 90 90 85 90 80 L90 35 C90 30 85 25 80 25 Z"
        fill="url(#folderGradient)" opacity="0.8"/>

  <!-- Folder tab -->
  <path d="M10 25 L10 20 C10 15 15 10 20 10 L35 10 L45 20 L80 20 C85 20 90 25 90 30 L90 35 L10 35 Z"
        fill="url(#folderGradient)"/>

  <!-- Folder highlight -->
  <path d="M15 30 L85 30 C87 30 88 31 88 33 L88 75 C88 77 87 78 85 78 L15 78 C13 78 12 77 12 75 L12 33 C12 31 13 30 15 30 Z"
        fill="none" stroke="white" stroke-width="2" opacity="0.3"/>
</svg>
